<svg width="26.137451" height="21.166809" viewBox="0 0 26.1375 21.1668" fill="none" xmlns="http://www.w3.org/2000/svg" xmlns:xlink="http://www.w3.org/1999/xlink">
	<desc>
			Created with Pixso.
	</desc>
	<defs/>
	<path id="Vector" d="M9.86475 20.8951L9.85742 20.8916L9.83423 20.8776C9.69922 20.795 9.56519 20.7102 9.43213 20.6233C7.83374 19.568 6.34009 18.3283 4.97583 16.9249C2.55981 14.4201 0 10.7031 0 6.12509C0 2.70908 2.58716 9.15527e-05 5.70996 9.15527e-05C6.57788 -0.00463867 7.43579 0.20816 8.21973 0.62262C9.00366 1.03711 9.69336 1.64261 10.2375 2.39407C10.7817 1.64246 11.4717 1.03687 12.2556 0.622375C13.0398 0.207886 13.8979 -0.00482178 14.7661 9.15527e-05C17.8877 9.15527e-05 20.4751 2.70908 20.4751 6.12509C20.4751 10.7043 15.499 16.9237 15.499 16.9237C15.499 16.9237 12.2573 19.6336 11.043 20.6221C9.82837 21.6105 10.7759 20.7946 10.6406 20.8776L10.6177 20.8916L10.6104 20.8962L10.6072 20.8974C10.4932 20.9644 10.3665 20.9995 10.2375 20.9995C10.1086 20.9995 9.98169 20.9644 9.86792 20.8974L9.86475 20.8951Z" fill="#FFFFFF" fill-opacity="1.000000" fill-rule="nonzero"/>
	<path id="offline_bolt" d="M19.1416 18.9668L22.0125 12.7335L20.0325 12.7335L20.0325 8.70013L17.0625 14.9334L19.1416 14.9334L19.1416 18.9668ZM19.5376 21.1668C18.6245 21.1668 17.7666 20.9743 16.9634 20.5893C16.1604 20.2043 15.4619 19.6818 14.8679 19.0218C14.2739 18.3618 13.8037 17.5857 13.4573 16.6935C13.1108 15.8012 12.9375 14.8479 12.9375 13.8335C12.9375 12.819 13.1108 11.8657 13.4573 10.9734C13.8037 10.0812 14.2739 9.30511 14.8679 8.64511C15.4619 7.98511 16.1604 7.46262 16.9634 7.07764C17.7666 6.69263 18.6245 6.50012 19.5376 6.50012C20.4504 6.50012 21.3086 6.69263 22.1116 7.07764C22.9146 7.46262 23.613 7.98511 24.207 8.64511C24.801 9.30511 25.2712 10.0812 25.6177 10.9734C25.9644 11.8657 26.1375 12.819 26.1375 13.8335C26.1375 14.8479 25.9644 15.8012 25.6177 16.6935C25.2712 17.5857 24.801 18.3618 24.207 19.0218C23.613 19.6818 22.9146 20.2043 22.1116 20.5893C21.3086 20.9743 20.4504 21.1668 19.5376 21.1668Z" fill="#894189" fill-opacity="1.000000" fill-rule="nonzero"/>
	<path id="offline_bolt" d="M19.4773 18.5001L22.0874 12.8334L20.2874 12.8334L20.2874 9.16675L17.5874 14.8334L19.4773 14.8334L19.4773 18.5001ZM19.8374 20.5001C19.0073 20.5001 18.2273 20.3251 17.4973 19.9751C16.7673 19.6251 16.1323 19.1501 15.5923 18.5501C15.0525 17.9501 14.625 17.2445 14.3098 16.4334C13.9949 15.6223 13.8374 14.7556 13.8374 13.8334C13.8374 12.9112 13.9949 12.0445 14.3098 11.2334C14.625 10.4223 15.0525 9.71674 15.5923 9.11676C16.1323 8.51675 16.7673 8.04175 17.4973 7.69174C18.2273 7.34174 19.0073 7.16675 19.8374 7.16675C20.6675 7.16675 21.4475 7.34174 22.1775 7.69174C22.9075 8.04175 23.5425 8.51675 24.0825 9.11676C24.6223 9.71674 25.0498 10.4223 25.365 11.2334C25.6799 12.0445 25.8374 12.9112 25.8374 13.8334C25.8374 14.7556 25.6799 15.6223 25.365 16.4334C25.0498 17.2445 24.6223 17.9501 24.0825 18.5501C23.5425 19.1501 22.9075 19.6251 22.1775 19.9751C21.4475 20.3251 20.6675 20.5001 19.8374 20.5001Z" fill="#FFFFFF" fill-opacity="1.000000" fill-rule="nonzero"/>
</svg>
